:SAMPLES-PER-SECOND 30
:FRAME-RANGE 1-3535
:FULLY-SPECIFIED
:DEGREES
553
root  -10.6366 38.9183 -0.86841 -5.3869 10.3998 -0.943054
RightUpLeg  -25.357 7.52668 -5.82212
RightLeg  37.7468 -5.72936 -4.99619
RightFoot  4.11005 -1.45605 10.9108
RightToes  1.22775e-009 1.2921e-014 -6.02303e-014
Spine  9.85164 -0.987186 -3.21612
Spine1  4.81636 -1.07352 -1.75714
HEad  1.95736 19.8206 -6.83257
LeftShoulder1  2.61253 -2.88 -34.8818
LeftArm  15.4975 -33.9996 -43.423
LeftForeArm  6.55358 -3.05029 -18.3996
LeftHand  0.45585 -3.23212 -5.90655
RightShoulder  8.90765 12.7201 48.0737
RightArm  15.149 -5.39889 17.6555
RightForeArm  14.531 -2.45716 18.0035
RightHand  0.369103 5.27773 3.69716
LeftUpLeg  5.3043 5.82855 -6.90465
LeftLeg  16.1121 0.940893 -1.14813
LeftFoot  -15.5615 0.363033 7.30061
LeftToes  2.52163e-011 5.65494e-011 -1.09494e-012
554
root  -10.3427 38.93 0.594962 -4.89066 11.6848 -1.36697
RightUpLeg  -22.9449 4.38854 -4.47294
RightLeg  19.851 -4.92465 -2.17391
RightFoot  4.75851 -1.91662 13.7239
RightToes  1.22775e-009 1.2921e-014 -6.02303e-014
Spine  8.83519 -1.1863 -2.65352
Spine1  4.70603 -1.22315 -0.906492
HEad  1.53009 19.4044 -7.07539
LeftShoulder1  2.56616 -2.87028 -34.2269
LeftArm  22.1765 -35.8997 -45.8997
LeftForeArm  4.3435 -7.80897 -16.9264
LeftHand  0.510254 -3.94455 -6.07932
RightShoulder  8.11047 11.3436 47.8361
RightArm  22.1156 -7.59408 17.0038
RightForeArm  11.6859 0.572882 18.1992
RightHand  0.388272 5.50504 3.81005
LeftUpLeg  8.41984 5.75097 -6.1491
LeftLeg  13.7634 -0.303944 -1.3813
LeftFoot  -16.2168 0.402696 7.15685
LeftToes  2.52163e-011 5.65494e-011 -1.09494e-012
555
root  -10.04 38.8218 2.15213 -4.62946 13.0982 -1.68115
RightUpLeg  -19.2869 -1.63322 -2.19282
RightLeg  2.84795 -1.81491 0.692667
RightFoot  3.83147 -2.11757 16.0024
RightToes  1.22775e-009 1.2921e-014 -6.02303e-014
Spine  7.79147 -1.42109 -2.31368
Spine1  4.91583 -1.53972 -0.00330127
HEad  1.27257 19.2393 -7.43516
LeftShoulder1  2.55362 -2.8936 -33.8885
LeftArm  32.3782 -36.5741 -47.5782
LeftForeArm  -1.8847 -14.2627 -13.3712
LeftHand  0.545135 -4.52295 -6.09273
RightShoulder  7.43065 10.2805 47.2032
RightArm  25.4733 -9.69885 16.7867
RightForeArm  11.6866 2.3651 17.9425
RightHand  0.545629 5.99821 5.21488
LeftUpLeg  11.5678 6.29437 -5.03852
LeftLeg  12.325 -2.52052 -1.89828
LeftFoot  -17.1973 0.452774 6.82075
LeftToes  2.52163e-011 5.65494e-011 -1.09494e-012
556
root  -9.76893 38.5376 3.8101 -4.40469 14.4911 -1.25449
RightUpLeg  -17.4896 -2.51949 -2.26436
RightLeg  -5.06421 -3.53355 2.91692
RightFoot  0.562222 -1.9706 18.7831
RightToes  1.22775e-009 1.2921e-014 -6.02303e-014
Spine  6.65891 -1.54026 -3.17854
Spine1  5.13034 -1.83053 0.900244
HEad  1.42796 19.1747 -7.35086
LeftShoulder1  2.54569 -2.90895 -33.6717
LeftArm  41.0052 -36.5294 -48.4937
LeftForeArm  -7.69282 -19.4844 -8.73797
LeftHand  0.509531 -4.73525 -5.54378
RightShoulder  6.76768 9.17019 46.7549
RightArm  27.35 -11.4209 16.5601
RightForeArm  12.2637 3.56525 17.6259
RightHand  0.557023 6.39438 5.12925
LeftUpLeg  14.2646 7.17188 -4.22838
LeftLeg  12.6532 -4.68228 -2.59653
LeftFoot  -18.7912 0.520176 6.24708
LeftToes  2.52163e-011 5.65494e-011 -1.09494e-012
557
root  -9.47547 38.2785 5.44113 -4.20065 14.9875 -1.0827
RightUpLeg  -16.7414 -1.55431 -1.17492
RightLeg  -5.17437 -7.09028 2.99213
RightFoot  0.189308 -1.56758 15.4523
RightToes  1.22775e-009 1.2921e-014 -6.02303e-014
Spine  6.41838 -1.44226 -2.80625
Spine1  4.77903 -1.75894 0.907144
HEad  1.77482 19.445 -6.97044
LeftShoulder1  2.49809 -2.79615 -33.6262
LeftArm  43.3812 -35.8366 -48.2042
LeftForeArm  -8.57082 -22.7889 -5.72774
LeftHand  0.455602 -4.86055 -4.85845
RightShoulder  6.23927 8.19248 46.712
RightArm  27.2403 -12.3375 16.1877
RightForeArm  12.3739 3.67509 17.5625
RightHand  0.601048 6.50037 5.50549
LeftUpLeg  16.5592 8.21305 -3.1673
LeftLeg  13.5938 -6.61308 -3.1623
LeftFoot  -19.7956 0.471273 4.76323
LeftToes  2.52163e-011 5.65494e-011 -1.09494e-012
558
root  -9.11637 38.1013 7.0753 -4.01172 14.8648 -1.67419
RightUpLeg  -16.4665 -0.87078 0.634228
RightLeg  -1.08585 -7.30308 2.73532
RightFoot  4.33193 -1.6636 12.2609
RightToes  1.22775e-009 1.2921e-014 -6.02303e-014
Spine  6.12045 -1.42203 -0.82612
Spine1  4.84933 -1.70748 0.715045
HEad  2.23535 20.2699 -7.30555
LeftShoulder1  2.43604 -2.58564 -33.972
LeftArm  38.4963 -34.0234 -46.4812
LeftForeArm  -4.352 -25.0687 -5.58822
LeftHand  0.43428 -5.02939 -4.53183
RightShoulder  5.9149 7.65497 46.4124
RightArm  24.5774 -12.4334 15.9648
RightForeArm  13.6542 2.27554 17.7363
RightHand  0.498811 6.21483 4.63891
LeftUpLeg  18.4916 9.40523 -1.67533
LeftLeg  14.6822 -7.75136 -3.04137
LeftFoot  -20.0459 0.336076 2.83322
LeftToes  2.52163e-011 5.65494e-011 -1.09494e-012
559
root  -8.69305 38.0649 8.66512 -4.3288 14.6971 -3.47031
RightUpLeg  -17.9782 -0.796908 2.69292
RightLeg  4.40288 -4.57152 3.05462
RightFoot  11.8699 -1.03596 5.44015
RightToes  1.22775e-009 1.2921e-014 -6.02303e-014
Spine  6.51692 -1.58729 2.92697
Spine1  4.59617 -1.73477 0.673774
HEad  2.75842 21.6215 -8.20574
LeftShoulder1  2.4039 -2.34822 -35.0269
LeftArm  34.3156 -31.109 -44.0371
LeftForeArm  -1.90127 -26.6212 -5.82096
LeftHand  0.424881 -5.00844 -4.43755
RightShoulder  5.74551 7.35419 46.3318
RightArm  20.4379 -11.781 15.2475
RightForeArm  15.3047 0.304562 17.8405
RightHand  0.51578 6.06206 4.88085
LeftUpLeg  19.8437 10.5894 1.10992
LeftLeg  17.0631 -9.15738 -2.97448
LeftFoot  -18.8923 0.0802307 -0.5015
LeftToes  2.52163e-011 5.65494e-011 -1.09494e-012
560
root  -8.27119 37.9419 10.276 -4.89236 13.8093 -5.80673
RightUpLeg  -19.7528 -2.38834 6.64813
RightLeg  13.2363 -1.37731 1.29831
RightFoot  6.6695 -0.632339 4.27656
RightToes  1.22775e-009 1.2921e-014 -6.02303e-014
Spine  6.85267 -1.69879 6.90651
Spine1  4.65447 -1.4064 0.335476
HEad  2.78919 23.4028 -9.60619
LeftShoulder1  2.37544 -2.11211 -36.2161
LeftArm  32.1878 -27.7023 -42.0295
LeftForeArm  -2.17252 -26.4502 -5.79512
LeftHand  0.375049 -4.7283 -4.00786
RightShoulder  6.18299 8.01867 46.9962
RightArm  15.3146 -9.72836 13.8583
RightForeArm  16.7274 -2.53999 17.8674
RightHand  0.605846 6.08893 5.77462
LeftUpLeg  18.4392 11.5428 4.70089
LeftLeg  24.9557 -9.02228 -4.22535
LeftFoot  -16.0516 -0.117905 -5.2019
LeftToes  2.52163e-011 5.65494e-011 -1.09494e-012
561
root  -7.98342 37.8698 11.674 -4.93127 14.3181 -6.94693
RightUpLeg  -20.4324 -3.45136 8.55483
RightLeg  18.5417 -0.726362 0.282973
RightFoot  3.06435 -0.357454 2.99283
RightToes  1.22775e-009 1.2921e-014 -6.02303e-014
Spine  7.29426 -2.04253 7.19313
Spine1  4.97955 -1.98968 2.79447
HEad  3.60475 25.0946 -9.55984
LeftShoulder1  2.30475 -1.94477 -36.2157
LeftArm  33.0016 -23.6035 -41.6882
LeftForeArm  -5.77773 -24.0263 -5.42414
LeftHand  0.311803 -4.44063 -3.39823
RightShoulder  6.96565 9.31435 47.5969
RightArm  7.84259 -7.08513 12.7868
RightForeArm  20.1618 -5.58075 17.1847
RightHand  0.590517 5.95139 5.69648
LeftUpLeg  13.1755 11.2169 6.88991
LeftLeg  36.4988 -7.61551 -5.65617
LeftFoot  -7.2358 0.450332 -11.329
LeftToes  2.52163e-011 5.65494e-011 -1.09494e-012
562
root  -7.70522 37.747 12.8833 -4.72604 16.4413 -8.29684
RightUpLeg  -21.1473 -4.4633 9.57314
RightLeg  22.6449 -1.75955 -0.14178
RightFoot  -0.662207 -0.213319 2.23299
RightToes  1.22775e-009 1.2921e-014 -6.02303e-014
Spine  7.58386 -2.61682 8.57809
Spine1  5.21161 -2.52463 4.6668
HEad  4.57623 25.1264 -8.4217
LeftShoulder1  2.26996 -1.928 -35.7187
LeftArm  32.1156 -20.8939 -42.2508
LeftForeArm  -5.78104 -19.42 -8.3992
LeftHand  0.279066 -4.09345 -3.14614
RightShoulder  7.16906 9.70314 47.5416
RightArm  0.899084 -5.23616 12.7497
RightForeArm  21.808 -6.87314 16.1804
RightHand  0.442394 5.31227 4.4757
LeftUpLeg  5.04254 8.43902 8.33337
LeftLeg  49.0035 -5.87658 -6.78304
LeftFoot  5.23912 2.19974 -15.2415
LeftToes  2.52163e-011 5.65494e-011 -1.09494e-012
563
root  -7.37047 37.6178 13.9973 -5.12659 18.3512 -9.5932
RightUpLeg  -20.8667 -5.87543 10.3794
RightLeg  25.9017 -2.31986 -0.414557
RightFoot  -4.20823 -0.179015 2.41163
RightToes  1.22775e-009 1.2921e-014 -6.02303e-014
Spine  8.25036 -2.78263 11.9005
Spine1  5.33935 -1.87269 4.21835
HEad  5.1818 23.9627 -7.44311
LeftShoulder1  2.31461 -2.00329 -35.9532
LeftArm  25.6793 -20.2589 -42.0464
LeftForeArm  1.40857 -12.1779 -14.4738
LeftHand  0.300498 -3.68585 -3.5913
RightShoulder  7.06879 9.51872 47.5415
RightArm  -1.6946 -4.48696 13.0487
RightForeArm  19.816 -5.61886 15.8283
RightHand  0.368415 4.94474 3.82967
LeftUpLeg  -2.16245 6.49254 9.9233
LeftLeg  58.5271 -4.35132 -7.12644
LeftFoot  15.6408 3.83065 -16.2801
LeftToes  2.52163e-011 5.65494e-011 -1.09494e-012
